<svg width="24" height="24" viewBox="0 0 24 24" fill="none" xmlns="http://www.w3.org/2000/svg">
<path d="M6.10304 3.23361C6.41452 2.92213 6.91952 2.92213 7.23099 3.23361L9.48689 5.48951C9.79837 5.80098 9.79837 6.30598 9.48689 6.61746L7.33343 8.77092C7.97501 10.2344 8.84394 11.8594 10.2103 13.2257C11.7459 14.7614 13.6894 15.7498 15.3827 16.513L17.3825 14.5131C17.694 14.2016 18.199 14.2016 18.5105 14.5131L20.7664 16.769C21.0779 17.0805 21.0779 17.5855 20.7664 17.897L18.5105 20.1529C18.4193 20.2441 18.3114 20.3086 18.1967 20.3464C15.65 21.9674 10.9605 20.4985 7.23099 16.769C3.50146 13.0395 2.03264 8.35003 3.65361 5.80329C3.6914 5.68858 3.75591 5.58074 3.84714 5.48951L6.10304 3.23361Z" stroke="#171725" stroke-width="2"/>
</svg>
