<svg width="24" height="24" viewBox="0 0 24 24" fill="none" xmlns="http://www.w3.org/2000/svg">
<path fill-rule="evenodd" clip-rule="evenodd" d="M2 3.83333C2 3.3731 2.3731 3 2.83333 3H4.23434C5.23441 3 6.13826 3.59599 6.5322 4.5152L6.95426 5.5H20.88C21.4382 5.5 21.8386 6.03811 21.6782 6.57279L19.6782 13.2395C19.5724 13.5919 19.248 13.8333 18.88 13.8333H7C6.53976 13.8333 6.16667 14.2064 6.16667 14.6667C6.16667 15.1269 6.53976 15.5 7 15.5H21.1667C21.6269 15.5 22 15.8731 22 16.3333C22 16.7936 21.6269 17.1667 21.1667 17.1667H20.1911C20.2832 17.4273 20.3333 17.7078 20.3333 18C20.3333 19.3807 19.214 20.5 17.8333 20.5C16.4526 20.5 15.3333 19.3807 15.3333 18C15.3333 17.7078 15.3835 17.4273 15.4756 17.1667H12.6911C12.7832 17.4273 12.8333 17.7078 12.8333 18C12.8333 19.3807 11.714 20.5 10.3333 20.5C8.95262 20.5 7.83333 19.3807 7.83333 18C7.83333 17.7078 7.88346 17.4273 7.97559 17.1667H7C5.61929 17.1667 4.5 16.0474 4.5 14.6667C4.5 13.286 5.61929 12.1667 7 12.1667H7.33333L5.78216 6.99609L5.00029 5.17173C4.86898 4.86533 4.5677 4.66667 4.23434 4.66667H2.83333C2.3731 4.66667 2 4.29357 2 3.83333ZM9.07338 12.1667H18.2599L19.7599 7.16667H7.57338L9.07338 12.1667ZM10.3333 17.1667C9.8731 17.1667 9.5 17.5398 9.5 18C9.5 18.4602 9.8731 18.8333 10.3333 18.8333C10.7936 18.8333 11.1667 18.4602 11.1667 18C11.1667 17.5398 10.7936 17.1667 10.3333 17.1667ZM17.8333 17.1667C17.3731 17.1667 17 17.5398 17 18C17 18.4602 17.3731 18.8333 17.8333 18.8333C18.2936 18.8333 18.6667 18.4602 18.6667 18C18.6667 17.5398 18.2936 17.1667 17.8333 17.1667Z" fill="#171725"/>
</svg>
