<svg width="24" height="24" viewBox="0 0 24 24" fill="none" xmlns="http://www.w3.org/2000/svg">
<path fill-rule="evenodd" clip-rule="evenodd" d="M6.70711 8.29289C6.31658 7.90237 5.68342 7.90237 5.29289 8.29289C4.90237 8.68342 4.90237 9.31658 5.29289 9.70711L11.2925 15.7067C11.2926 15.7068 11.2928 15.707 11.2929 15.7071C11.3417 15.7559 11.3943 15.7986 11.4498 15.8352C11.6193 15.9472 11.8154 16.0021 12.011 15.9999C12.0713 15.9993 12.1316 15.9932 12.191 15.9817C12.3801 15.9451 12.5607 15.8536 12.7071 15.7071L18.7071 9.70711C19.0976 9.31658 19.0976 8.68342 18.7071 8.29289C18.3166 7.90237 17.6834 7.90237 17.2929 8.29289L12 13.5858L6.70711 8.29289Z" fill="#171725"/>
</svg>
