<svg width="54" height="48" viewBox="0 0 54 48" fill="none" xmlns="http://www.w3.org/2000/svg">
<path fill-rule="evenodd" clip-rule="evenodd" d="M28 32C22.4772 32 18 25 18 25C18 25 22.4772 18 28 18C33.5228 18 38 25 38 25C38 25 33.5228 32 28 32ZM22.3193 27.0623C21.5584 26.3265 20.9269 25.5847 20.4688 25C20.9269 24.4153 21.5584 23.6735 22.3193 22.9377C24.0333 21.2802 26.0454 20 28 20C29.9546 20 31.9667 21.2802 33.6807 22.9377C34.4416 23.6735 35.0731 24.4153 35.5312 25C35.0731 25.5847 34.4416 26.3265 33.6807 27.0623C31.9667 28.7198 29.9546 30 28 30C26.0454 30 24.0333 28.7198 22.3193 27.0623ZM19.6833 26.0801C19.683 26.0804 19.6831 26.0804 19.6833 26.08L19.6833 26.0801ZM29 25C29 25.5523 28.5523 26 28 26C27.4477 26 27 25.5523 27 25C27 24.4477 27.4477 24 28 24C28.5523 24 29 24.4477 29 25ZM31 25C31 26.6569 29.6569 28 28 28C26.3431 28 25 26.6569 25 25C25 23.3431 26.3431 22 28 22C29.6569 22 31 23.3431 31 25Z" fill="#92929D"/>
</svg>
