<svg width="24" height="24" viewBox="0 0 24 24" fill="none" xmlns="http://www.w3.org/2000/svg">
<path fill-rule="evenodd" clip-rule="evenodd" d="M15.7071 6.70711C16.0976 6.31658 16.0976 5.68342 15.7071 5.29289C15.3166 4.90237 14.6834 4.90237 14.2929 5.29289L8.29328 11.2925C8.29315 11.2926 8.29302 11.2928 8.29289 11.2929C8.24408 11.3417 8.20136 11.3943 8.16475 11.4498C8.05281 11.6193 7.99791 11.8154 8.00006 12.011C8.00072 12.0713 8.0068 12.1316 8.01831 12.191C8.05492 12.3801 8.14645 12.5607 8.29289 12.7071L14.2929 18.7071C14.6834 19.0976 15.3166 19.0976 15.7071 18.7071C16.0976 18.3166 16.0976 17.6834 15.7071 17.2929L10.4142 12L15.7071 6.70711Z" fill="#171725"/>
</svg>
