<svg width="24" height="24" viewBox="0 0 24 24" fill="none" xmlns="http://www.w3.org/2000/svg">
<rect width="24" height="24" fill="white"/>
<path fill-rule="evenodd" clip-rule="evenodd" d="M12 2C11.4477 2 11 2.44772 11 3V4.08296C8.16229 4.55904 6 7.027 6 10V13.1707C4.83481 13.5825 4 14.6938 4 16V19H8.12602C8.57006 20.7252 10.1362 22 12 22C13.8638 22 15.4299 20.7252 15.874 19H20V16C20 14.6938 19.1652 13.5825 18 13.1707V10C18 7.027 15.8377 4.55904 13 4.08296V3C13 2.44772 12.5523 2 12 2ZM17 15H7C6.44772 15 6 15.4477 6 16V17H18V16C18 15.4477 17.5523 15 17 15ZM16 13V10C16 7.79086 14.2091 6 12 6C9.79086 6 8 7.79086 8 10V13H16ZM12 19C11.2996 19 10.7334 19.0024 10.2812 19.0232C10.6302 19.6082 11.2693 20 12 20C12.7306 20 13.3698 19.6082 13.7188 19.0232C13.2666 19.0024 12.7004 19 12 19Z" fill="#171725"/>
</svg>
