<svg width="48" height="48" viewBox="0 0 48 48" fill="none" xmlns="http://www.w3.org/2000/svg">
<path fill-rule="evenodd" clip-rule="evenodd" d="M31 21V22H25V21C25 19.3431 26.3431 18 28 18C29.6569 18 31 19.3431 31 21ZM23 22V21C23 18.2386 25.2386 16 28 16C30.7614 16 33 18.2386 33 21V22H34C35.1046 22 36 22.8954 36 24V32C36 33.1046 35.1046 34 34 34H22C20.8954 34 20 33.1046 20 32V24C20 22.8954 20.8954 22 22 22H23ZM33 24H31H25H23H22V32H34V24H33ZM29 28.7324C29.5978 28.3866 30 27.7403 30 27C30 25.8954 29.1046 25 28 25C26.8954 25 26 25.8954 26 27C26 27.7403 26.4022 28.3866 27 28.7324V30C27 30.5523 27.4477 31 28 31C28.5523 31 29 30.5523 29 30V28.7324Z" fill="#92929D"/>
</svg>
