<svg width="24" height="24" viewBox="0 0 24 24" fill="none" xmlns="http://www.w3.org/2000/svg">
<path fill-rule="evenodd" clip-rule="evenodd" d="M13.4735 5.3696L13.4749 5.36827L16.3033 2.53984C16.5474 2.29576 16.8862 2.20423 17.2014 2.26525C17.3905 2.30187 17.5711 2.39339 17.7175 2.53984L21.9602 6.78248C22.009 6.8313 22.0517 6.8839 22.0883 6.93936C22.3446 7.32751 22.3019 7.85499 21.9602 8.1967L8.11091 22.0459C7.92337 22.2335 7.66902 22.3388 7.4038 22.3388H3.16116C2.60888 22.3388 2.16116 21.8911 2.16116 21.3388L2.16116 17.0962C2.16116 16.831 2.26652 16.5766 2.45406 16.3891L13.4735 5.3696ZM19.8388 7.48959L18.4246 8.9038L15.5962 6.07538L17.0104 4.66116L19.8388 7.48959ZM17.0104 10.318L6.98959 20.3388H4.16116L4.16116 17.5104L14.182 7.48959L17.0104 10.318Z" fill="#171725"/>
</svg>
