<svg width="24" height="24" viewBox="0 0 24 24" fill="none" xmlns="http://www.w3.org/2000/svg">
<path fill-rule="evenodd" clip-rule="evenodd" d="M8.29289 17.2929C7.90237 17.6834 7.90237 18.3166 8.29289 18.7071C8.68342 19.0976 9.31658 19.0976 9.70711 18.7071L15.7067 12.7075C15.7068 12.7074 15.707 12.7072 15.7071 12.7071C15.7559 12.6583 15.7986 12.6057 15.8352 12.5502C15.9472 12.3807 16.0021 12.1846 15.9999 11.989C15.9993 11.9287 15.9932 11.8684 15.9817 11.809C15.9451 11.6199 15.8536 11.4393 15.7071 11.2929L9.70711 5.29289C9.31658 4.90237 8.68342 4.90237 8.29289 5.29289C7.90237 5.68342 7.90237 6.31658 8.29289 6.70711L13.5858 12L8.29289 17.2929Z" fill="#171725"/>
</svg>
