<svg width="24" height="24" viewBox="0 0 24 24" fill="none" xmlns="http://www.w3.org/2000/svg">
<path fill-rule="evenodd" clip-rule="evenodd" d="M20.6405 11.1014C21.3482 11.5008 21.3482 12.4992 20.6405 12.8986L4.76775 21.8563C3.88407 22.355 2.85972 21.4668 3.26096 20.5497L6.82313 12.408C6.93715 12.1474 6.93715 11.8526 6.82313 11.592L3.26096 3.45028C2.85973 2.53322 3.88408 1.64495 4.76775 2.14365L20.6405 11.1014ZM6.46615 5.49844L17.9867 12L6.46615 18.5016L8.76988 13.2362L11.6174 13.2362C12.2037 13.2362 12.679 12.7716 12.679 12.1985C12.679 11.6255 12.2037 11.1609 11.6174 11.1609L8.91386 11.1609C8.87651 11.0305 8.83029 10.9019 8.77519 10.776L6.46615 5.49844Z" fill="#171725"/>
</svg>
