<svg width="24" height="24" viewBox="0 0 24 24" fill="none" xmlns="http://www.w3.org/2000/svg">
<path fill-rule="evenodd" clip-rule="evenodd" d="M12.5758 13.8132L13.2047 13.221L18.5261 8.20995H5.32711L10.0146 13.0254L10.5815 13.6078V14.4205V19.3553L12.5758 18.3309V14.677V13.8132ZM8.58153 14.4205V20.9931C8.58153 21.7413 9.37295 22.2245 10.0384 21.8826L14.0327 19.831C14.3662 19.6597 14.5758 19.3163 14.5758 18.9415V14.677L21.7323 7.93797C22.3914 7.31722 21.9522 6.20995 21.0467 6.20995H2.95811C2.07368 6.20995 1.62464 7.27373 2.24155 7.90747L8.58153 14.4205Z" fill="#171725"/>
<path d="M3 5C3 3.89543 3.89543 3 5 3H19C20.1046 3 21 3.89543 21 5V7.31494L3 7.31493L3 5Z" stroke="#171725" stroke-width="2"/>
</svg>
