<svg width="24" height="24" viewBox="0 0 24 24" fill="none" xmlns="http://www.w3.org/2000/svg">
<path d="M11.9052 3.1382C11.9651 2.95393 12.2258 2.95393 12.2856 3.1382L14.2956 9.32442C14.3224 9.40682 14.3992 9.46262 14.4859 9.46262H20.9904C21.1842 9.46262 21.2647 9.71054 21.108 9.82442L15.8457 13.6477C15.7756 13.6986 15.7463 13.7889 15.773 13.8713L17.7831 20.0575C17.8429 20.2418 17.632 20.395 17.4753 20.2812L12.213 16.4579C12.1429 16.4069 12.048 16.4069 11.9779 16.4579L6.71554 20.2812C6.5588 20.395 6.3479 20.2418 6.40777 20.0575L8.4178 13.8713C8.44457 13.7889 8.41524 13.6986 8.34514 13.6477L3.08283 9.82442C2.92608 9.71054 3.00664 9.46262 3.20038 9.46262H9.70496C9.79161 9.46262 9.8684 9.40682 9.89517 9.32442L11.9052 3.1382Z" stroke="#171725" stroke-width="2"/>
</svg>
