<svg width="24" height="24" viewBox="0 0 24 24" fill="none" xmlns="http://www.w3.org/2000/svg">
<path d="M14 10C14.5523 10 15 10.4477 15 11V17C15 17.5523 14.5523 18 14 18C13.4477 18 13 17.5523 13 17V11C13 10.4477 13.4477 10 14 10Z" fill="#171725"/>
<path d="M11 11C11 10.4477 10.5523 10 10 10C9.44772 10 9 10.4477 9 11L9 17C9 17.5523 9.44771 18 10 18C10.5523 18 11 17.5523 11 17L11 11Z" fill="#171725"/>
<path fill-rule="evenodd" clip-rule="evenodd" d="M16 7V5C16 3.89543 15.1046 3 14 3H10C8.89543 3 8 3.89543 8 5V7H4C3.44772 7 3 7.44772 3 8C3 8.55228 3.44772 9 4 9H5V19C5 20.1046 5.89543 21 7 21H17C18.1046 21 19 20.1046 19 19V9H20C20.5523 9 21 8.55228 21 8C21 7.44772 20.5523 7 20 7H16ZM14 5H10V7H14V5ZM17 9H7V19H17V9Z" fill="#171725"/>
</svg>
