<svg width="24" height="24" viewBox="0 0 24 24" fill="none" xmlns="http://www.w3.org/2000/svg">
<path fill-rule="evenodd" clip-rule="evenodd" d="M17.2929 15.7071C17.6834 16.0976 18.3166 16.0976 18.7071 15.7071C19.0976 15.3166 19.0976 14.6834 18.7071 14.2929L12.7075 8.29328C12.7074 8.29315 12.7072 8.29302 12.7071 8.29289C12.6583 8.24408 12.6057 8.20136 12.5502 8.16475C12.3807 8.05281 12.1846 7.99791 11.989 8.00006C11.9287 8.00072 11.8684 8.0068 11.809 8.01831C11.6199 8.05492 11.4393 8.14645 11.2929 8.29289L5.29289 14.2929C4.90237 14.6834 4.90237 15.3166 5.29289 15.7071C5.68342 16.0976 6.31658 16.0976 6.70711 15.7071L12 10.4142L17.2929 15.7071Z" fill="#171725"/>
</svg>
